/* XPM */
static char *_1741207443[] = {
/* columns rows colors chars-per-pixel */
"80 87 182 2 ",
"   c #010100",
".  c #0B0503",
"X  c #070905",
"o  c #0B0906",
"O  c #0B0D09",
"+  c #100704",
"@  c #130B06",
"#  c #190E07",
"$  c #120E0A",
"%  c #1A0F09",
"&  c #0E100D",
"*  c #11110E",
"=  c #1C120A",
"-  c #1B1007",
";  c #141512",
":  c #1B1612",
">  c #171816",
",  c #1B1916",
"<  c #1C1C1B",
"1  c #22150B",
"2  c #25190D",
"3  c #2B1B0D",
"4  c #29170C",
"5  c #311E0F",
"6  c #241611",
"7  c #231C14",
"8  c #2C1D12",
"9  c #231E1A",
"0  c #301E11",
"q  c #1F211E",
"w  c #2E200F",
"e  c #2C2114",
"r  c #21221F",
"t  c #2A221B",
"y  c #332212",
"u  c #3B2513",
"i  c #3E2917",
"p  c #34251A",
"a  c #34291A",
"s  c #3B2B1B",
"d  c #352917",
"f  c #1F1F20",
"g  c #222321",
"h  c #2A2521",
"j  c #272826",
"k  c #2A2926",
"l  c #272628",
"z  c #2C2C2B",
"x  c #382721",
"c  c #332A24",
"v  c #3C2C24",
"b  c #312F2C",
"n  c #3E3127",
"m  c #32312E",
"M  c #3B322C",
"N  c #2F2E30",
"B  c #312F31",
"V  c #343434",
"C  c #3A3735",
"Z  c #373638",
"A  c #383739",
"S  c #3B3A3B",
"D  c #3E3833",
"F  c #422612",
"G  c #452A15",
"H  c #4C2D16",
"J  c #422C19",
"K  c #502F17",
"L  c #4C321C",
"P  c #40311C",
"I  c #503017",
"U  c #52351D",
"Y  c #59371B",
"T  c #5C391D",
"R  c #53381F",
"E  c #623C1D",
"W  c #402E24",
"Q  c #40342C",
"!  c #44382E",
"~  c #483626",
"^  c #553920",
"/  c #5C3D22",
"(  c #483F38",
")  c #413B39",
"_  c #603F23",
"`  c #5F4024",
"'  c #41403E",
"]  c #4E453F",
"[  c #50443B",
"{  c #58463B",
"}  c #654225",
"|  c #6B4525",
" . c #694728",
".. c #6D4929",
"X. c #734927",
"o. c #734C2A",
"O. c #794E2A",
"+. c #714725",
"@. c #76502D",
"#. c #7B522D",
"$. c #634E3D",
"%. c #7A5430",
"&. c #403F42",
"*. c #454343",
"=. c #4C4B4B",
"-. c #4A4543",
";. c #5D4F44",
":. c #534F4B",
">. c #50514E",
",. c #59534E",
"<. c #555552",
"1. c #585957",
"2. c #5F5E5C",
"3. c #634D41",
"4. c #6A5347",
"5. c #675145",
"6. c #655B55",
"7. c #61615E",
"8. c #6B6157",
"9. c #7B6A5B",
"0. c #6E6D6B",
"q. c #716D69",
"w. c #777673",
"e. c #81552F",
"r. c #835730",
"t. c #845932",
"y. c #8B5D33",
"u. c #935F34",
"i. c #8F6238",
"p. c #926135",
"a. c #996336",
"s. c #94653A",
"d. c #9B6739",
"f. c #9B6B3D",
"g. c #95683B",
"h. c #A36D3D",
"j. c #A7703E",
"k. c #9E6F41",
"l. c #88735F",
"z. c #A27243",
"x. c #AB7442",
"c. c #AE7D4A",
"v. c #B37B47",
"b. c #B17D49",
"n. c #B07745",
"m. c #8B796B",
"M. c #827E78",
"N. c #B3814D",
"B. c #BA824F",
"V. c #BC8551",
"C. c #BD8955",
"Z. c #BC8B58",
"A. c #86817C",
"S. c #C28F5A",
"D. c #C3915A",
"F. c #C69664",
"G. c #CB9A65",
"H. c #CB9B6A",
"J. c #D2A26C",
"K. c #D3A371",
"L. c #D7A976",
"P. c #D3A779",
"I. c #D9AC7B",
"U. c #8B8782",
"Y. c #9C9995",
"T. c #9D9B99",
"R. c #A59B8F",
"E. c #A9A6A3",
"W. c #ACA9A7",
"Q. c #ADACA9",
"!. c #B1AEAC",
"~. c #B3B0AF",
"^. c #B6B4B2",
"/. c #BAB6B4",
"(. c #BBBCB9",
"). c #BAB9B6",
"_. c #D8AF83",
"`. c #DDB68B",
"'. c #DDB88F",
"]. c #DFBB94",
"[. c #E0BE99",
"{. c None",
/* pixels */
"{.{.{.{.{.{.{.{.{.{.{.{.{.{.{.{.{.{.{.{.{.{.{.{.{.{.{.{.{.{.{.{.{.{.{.{.{.{.{.{.{.{.{.{.{.{.{.{.{.{.{.{.{.{.{.{.{.{.{.{.{.{.{.{.{.{.{.{.{.{.{.{.{.{.{.{.{.{.{.{.",
"{.{.{.{.{.{.{.{.{.{.{.{.{.{.{.{.{.{.{.{.{.{.{.{.{.{.{.{.{.{.{.{.{.{.{.{.{.{.{.{.{.{.{.{.{.{.{.{.{.{.{.{.{.{.{.{.{.{.{.{.{.{.{.{.{.{.{.{.{.{.{.{.{.{.{.{.{.{.{.{.",
"{.{.{.{.{.{.{.{.{.{.{.{.{.{.{.{.{.{.{.{.{.{.{.{.{.{.{.{.{.{.{.{.{.{.{.{.{.{.{.{.{.{.{.{.{.{.{.{.{.{.{.{.{.{.{.{.{.{.{.{.{.{.{.{.{.{.{.{.{.{.{.{.{.{.{.{.{.{.{.{.",
"{.{.{.{.{.{.{.{.{.{.{.{.{.{.{.{.{.{.{.{.{.{.{.{.{.{.{.{.{.{.{.{.{.{.{.{.{.{.{.{.{.{.{.{.{.{.{.{.{.{.{.{.{.{.{.{.{.{.{.{.{.{.{.{.{.{.{.{.{.{.{.{.{.{.{.{.{.{.{.{.",
"{.{.{.{.{.{.{.{.{.{.{.{.{.{.{.{.{.{.{.{.{.{.{.{.{.{.{.{.{.{.{.{.{.{.{.{.{.{.{.{.{.{.{.{.{.{.{.{.{.{.{.{.{.{.{.{.{.{.{.{.{.{.{.{.{.{.{.{.{.{.{.{.{.{.{.{.{.{.{.{.",
"{.{.{.{.{.{.{.{.{.{.{.{.{.{.{.{.{.{.{.{.{.{.{.{.{.{.{.{.{.{.{.{.{.{.{.{.{.{.{.{.{.{.{.{.{.{.{.{.{.{.{.{.{.{.{.{.{.{.{.{.{.{.{.{.{.{.{.{.{.{.{.{.{.{.{.{.{.{.{.{.",
"{.{.{.{.{.{.{.{.{.{.{.{.{.{.{.{.{.{.{.{.{.{.{.{.{.{.{.{.{.{.{.{.{.{.{.{.{.{.{.{.{.{.{.{.{.{.{.{.{.{.{.{.{.{.{.{.{.{.{.{.{.{.{.{.{.{.{.{.{.{.{.{.{.{.{.{.{.{.{.{.",
"{.{.{.{.{.{.{.{.{.{.{.{.{.{.{.{.{.{.{.{.{.{.{.{.{.{.{.{.{.{.{.{.{.{.{.{.{.{.{.{.{.{.{.{.{.{.{.{.{.{.{.{.{.{.{.{.{.{.{.{.{.{.{.{.{.{.{.{.{.{.{.{.{.{.{.{.{.{.{.{.",
"{.{.{.{.{.{.{.{.{.{.{.{.{.{.{.{.{.{.{.{.{.{.{.{.{.{.{.{.{.{.{.{.{.{.{.{.{.{.{.{.{.{.{.{.{.{.{.{.{.{.{.{.{.{.{.{.{.{.{.{.{.{.{.{.{.{.{.{.{.{.{.{.{.{.{.{.{.{.{.{.",
"{.{.{.{.{.{.{.{.{.{.{.{.{.{.{.{.{.{.{.{.{.{.{.{.{.{.{.{.{.{.{.{.{.{.{.{.{.{.{.{.{.{.{.{.{.{.{.{.{.{.{.{.{.{.{.{.{.{.{.{.{.{.{.{.{.{.{.{.{.{.{.{.{.{.{.{.{.{.{.{.",
"{.{.{.{.{.{.{.{.{.{.{.{.{.{.{.{.{.{.{.{.{.{.{.{.{.{.{.{.{.{.{.{.{.{.{.{.{.{.{.{.{.{.{.{.{.{.{.{.{.{.{.{.{.{.{.{.{.{.{.{.{.{.{.{.{.{.{.{.{.{.{.{.{.{.{.{.{.{.{.{.",
"{.{.{.{.{.{.{.{.{.{.{.{.{.{.{.{.{.{.{.{.{.{.{.{.{.{.{.{.{.{.{.{.{.{.{.{.{.{.{.{.{.{.{.{.{.{.{.{.{.{.{.{.{.{.{.{.{.{.{.{.{.{.{.{.{.{.{.{.{.{.{.{.{.{.{.{.{.{.{.{.",
"{.{.{.{.{.{.{.{.{.{.{.{.{.{.{.{.{.{.{.{.{.{.{.{.{.{.{.{.{.{.{.{.{.{.{.{.{.{.{.{.{.{.{.{.{.{.{.{.{.{.{.{.{.{.{.{.{.{.{.{.{.{.{.{.{.{.{.{.{.{.{.{.{.{.{.{.{.{.{.{.",
"{.{.{.{.{.{.{.{.{.{.{.{.{.{.{.{.{.{.{.{.{.{.{.{.{.{.{.{.{.{.{.{.{.{.{.{.{.{.{.{.{.{.{.{.{.{.{.{.{.{.{.{.{.{.{.{.{.{.{.{.{.{.{.{.{.{.{.{.{.{.{.{.{.{.{.{.{.{.{.{.",
"{.{.{.{.{.{.{.{.{.{.{.{.{.{.{.{.{.{.{.{.{.{.{.{.{.{.{.{.{.{.{.{.{.{.{.{.{.{.{.{.{.{.{.{.{.{.{.{.{.{.{.{.{.{.{.{.{.{.{.{.{.{.{.{.{.{.{.{.{.{.{.{.{.{.{.{.{.{.{.{.",
"{.{.{.{.{.{.{.{.{.{.{.{.{.{.{.{.{.{.{.{.{.{.{.{.{.{.{.{.{.{.{.{.{.{.{.{.{.{.{.{.{.{.{.{.{.{.{.{.{.{.{.{.{.{.{.{.{.{.{.{.{.{.{.{.{.{.{.{.{.{.{.{.{.{.{.{.{.{.{.{.",
"{.{.{.{.{.{.{.{.{.{.{.{.{.{.{.{.{.{.{.{.{.{.{.{.{.{.{.{.{.{.{.{.{.{.{.{.{.{.{.{.{.{.{.{.{.{.{.{.{.{.{.{.{.{.{.{.{.{.{.{.{.{.{.{.{.{.{.{.{.{.{.{.{.{.{.{.{.{.{.{.",
"{.{.{.{.{.{.{.{.{.{.{.{.{.{.{.{.{.{.{.{.{.{.{.{.{.{.{.{.{.{.{.{.{.{.{.{.{.{.{.{.{.{.{.{.{.{.{.{.{.{.{.{.{.{.{.{.{.{.{.{.{.{.{.{.{.{.{.{.{.{.{.{.{.{.{.{.{.{.{.{.",
"{.{.{.{.{.{.{.{.{.{.{.{.{.{.{.{.{.{.{.{.{.{.{.{.{.{.{.{.{.{.{.{.{.{.{.{.{.{.{.{.{.{.{.{.{.{.{.{.{.{.{.{.{.{.{.{.{.{.{.{.{.{.{.{.{.{.{.{.{.{.{.{.{.{.{.{.{.{.{.{.",
"{.{.{.{.{.{.{.{.{.{.{.{.{.{.{.{.{.{.{.{.{.{.{.{.{.{.{.{.{.{.{.{.{.{.{.{.{.{.{.{.{.{.{.{.{.{.{.{.{.{.{.{.{.{.{.{.{.{.{.{.{.{.{.{.{.{.{.{.{.{.{.{.{.{.{.{.{.{.{.{.",
"{.{.{.{.{.{.{.{.{.{.{.{.{.{.{.{.{.{.{.{.{.{.{.{.{.{.{.{.{.{.{.{.{.{.{.{.{.{.{.{.{.{.{.{.{.{.{.{.{.{.{.{.{.{.{.{.{.{.{.{.{.{.{.{.{.{.{.{.{.{.{.{.{.{.{.{.{.{.{.{.",
"{.{.{.{.{.{.{.{.{.{.{.{.{.{.{.{.{.{.{.{.{.{.{.{.{.{.{.{.{.{.{.{.{.{.{.{.{.{.{.{.{.{.{.{.{.{.{.{.{.{.{.{.{.{.{.{.{.{.{.{.{.{.{.{.{.{.{.{.{.{.{.{.{.{.{.{.{.{.{.{.",
"{.{.{.{.{.{.{.{.{.{.{.{.{.{.{.{.{.{.{.{.{.{.{.{.{.{.{.{.{.{.{.{.{.{.{.{.{.{.{.{.{.{.{.{.{.{.{.{.{.{.{.{.{.{.{.{.{.{.{.{.{.{.{.{.{.{.{.{.{.{.{.{.{.{.{.{.{.{.{.{.",
"{.{.{.{.{.{.{.{.{.{.{.{.{.{.{.{.{.{.{.{.{.{.{.{.{.{.{.{.{.{.{.{.{.{.{.{.{.{.{.{.{.{.{.{.{.{.{.{.{.{.{.{.{.{.{.{.{.{.{.{.{.{.{.{.{.{.{.{.{.{.{.{.{.{.{.{.{.{.{.{.",
"{.{.{.{.{.{.{.{.{.{.{.{.{.{.{.{.{.{.{.{.{.{.{.{.{.{.{.{.{.{.{.{.{.{.{.{.{.{.{.{.{.{.{.{.{.{.{.{.{.{.{.{.{.{.{.{.{.{.{.{.{.{.{.{.{.{.{.{.{.{.{.{.{.{.{.{.{.{.{.{.",
"{.{.{.{.{.{.{.{.{.{.{.{.{.{.{.{.{.{.{.{.{.{.{.{.{.{.{.{.{.{.{.{.{.{.{.{.{.{.{.{.{.{.{.{.{.{.{.{.{.{.{.{.{.{.{.{.{.{.{.{.{.{.{.{.{.{.{.{.{.{.{.{.{.{.{.{.{.{.{.{.",
"{.{.{.{.{.{.{.{.{.{.{.{.{.{.{.{.{.{.{.{.{.{.{.{.{.{.{.{.{.{.{.{.{.{.{.{.{.{.{.{.{.{.{.{.{.{.{.{.{.{.{.{.{.{.{.{.{.{.{.{.{.{.{.{.{.{.{.{.{.{.{.{.{.{.{.{.{.{.{.{.",
"{.{.{.{.{.{.{.{.{.{.{.{.{.{.{.{.{.{.{.{.{.{.{.{.{.{.{.{.{.{.{.{.{.{.{.{.{.{.{.{.{.{.{.{.{.{.{.{.{.{.{.{.{.{.{.{.{.{.{.{.{.{.{.{.{.{.{.{.{.{.{.{.{.{.{.{.{.{.{.{.",
"{.{.{.{.{.{.{.{.{.{.{.{.{.{.{.{.{.{.{.{.{.{.{.{.{.{.{.{.{.{.{.{.{.{.{.{.{.{.{.{.{.{.{.{.{.{.{.{.{.{.{.{.{.{.{.{.{.{.{.{.{.{.{.{.{.{.{.{.{.{.{.{.{.{.{.{.{.{.{.{.",
"{.{.{.{.{.{.{.{.{.{.{.{.{.{.{.{.{.{.{.{.{.{.{.{.{.{.{.{.{.{.{.{.{.{.{.{.{.{.{.    {.{.{.{.{.{.{.{.{.{.{.{.{.{.{.{.{.{.{.{.{.{.{.{.{.{.{.{.{.{.{.{.{.{.{.{.{.{.{.",
"{.{.{.{.{.{.{.{.{.{.{.{.{.{.{.{.{.{.{.{.{.{.{.{.{.{.{.{.{.{.{.{.{.{.{.{.{.{.{.    {.{.{.{.{.{.{.{.{.{.{.{.{.{.{.{.{.{.{.{.{.{.{.{.{.{.{.{.{.{.{.{.{.{.{.{.{.{.{.",
"{.{.{.{.{.{.{.{.{.{.{.{.{.{.{.{.{.{.{.{.{.{.{.{.{.{.{.{.{.{.{.{.{.{.{.{.{.{.;     ; {.{.{.{.{.{.{.{.{.{.{.{.{.{.{.{.{.{.{.{.{.{.{.{.{.{.{.{.{.{.{.{.{.{.{.{.{.{.",
"{.{.{.{.{.{.{.{.{.{.{.{.{.{.{.{.{.{.{.{.{.{.{.{.{.{.{.{.{.{.{.{.{.{.{.{.f f >   X > < f {.{.{.{.{.{.{.{.{.{.{.{.{.{.{.{.{.{.{.{.{.{.{.{.{.{.{.{.{.{.{.{.{.{.{.{.",
"{.{.{.{.{.{.{.{.{.{.{.{.{.{.{.{.{.{.{.{.{.{.{.{.{.{.{.{.{.{.{.{.{.{.{.9 < < ; X X > < < g {.{.{.{.{.{.{.{.{.{.{.{.{.{.{.{.{.{.{.{.{.{.{.{.{.{.{.{.{.{.{.{.{.{.{.",
"{.{.{.{.{.{.{.{.{.{.{.{.{.{.{.{.{.{.{.{.{.{.{.{.{.{.{.{.{.{.{.{.{.{.g f f < > O & < < < f g {.{.{.{.{.{.{.{.{.{.{.{.{.{.{.{.{.{.{.{.{.{.{.{.{.{.{.{.{.{.{.{.{.{.",
"{.{.{.{.{.{.{.{.{.{.{.{.{.{.{.{.{.{.{.{.{.{.{.{.{.{.{.{.{.{.{.{.{.{.g g f < < > > < < g g g {.{.{.{.{.{.{.{.{.{.{.{.{.{.{.{.{.{.{.{.{.{.{.{.{.{.{.{.{.{.{.{.{.{.",
"{.{.{.{.{.{.{.{.{.{.{.{.{.{.{.{.{.{.{.{.{.{.{.{.{.{.{.{.{.{.{.{.{.l g g < < 9 < < q < r g f g {.{.{.{.{.{.{.{.{.{.{.{.{.{.{.{.{.{.{.{.{.{.{.{.{.{.{.{.{.{.{.{.{.",
"{.{.{.{.{.{.{.{.{.{.{.{.{.{.{.{.{.{.{.{.{.{.{.{.{.{.{.{.{.{.{.{.{.l g g g f g f q g r r f l g {.{.{.{.{.{.{.{.{.{.{.{.{.{.{.{.{.{.{.{.{.{.{.{.{.{.{.{.{.{.{.{.{.",
"{.{.{.{.{.{.{.{.{.{.{.{.{.{.{.{.{.{.{.{.{.{.{.{.{.{.{.{.{.{.{.{.j l f g g g j f g l g g f l l l {.{.{.{.{.{.{.{.{.{.{.{.{.{.{.{.{.{.{.{.{.{.{.{.{.{.{.{.{.{.{.{.",
"{.{.{.{.{.{.{.{.{.{.{.{.{.{.{.{.{.{.{.{.{.{.{.{.{.{.{.{.{.{.{.{.l l q q g g j g g l g f f f g l {.{.{.{.{.{.{.{.{.{.{.{.{.{.{.{.{.{.{.{.{.{.{.{.{.{.{.{.{.{.{.{.",
"{.{.{.{.{.{.{.{.{.{.{.{.{.{.{.{.{.{.{.{.{.{.{.{.{.{.{.{.{.{.{.{.N f f f g g j j q j q q q q g N {.{.{.{.{.{.{.{.{.{.{.{.{.{.{.{.{.{.{.{.{.{.{.{.{.{.{.{.{.{.{.{.",
"{.{.{.{.{.{.{.{.{.{.{.{.{.{.{.{.{.{.{.{.{.{.{.{.{.{.{.{.{.{.{.Z N f < f r g g r g j g q q < f B N {.{.{.{.{.{.{.{.{.{.{.{.{.{.{.{.{.{.{.{.{.{.{.{.{.{.{.{.{.{.{.",
"{.{.{.{.{.{.{.{.{.{.{.{.{.{.{.{.{.{.{.{.{.{.{.{.{.{.{.{.{.{.{.S z > < f r g g g g g g r q < q N Z {.{.{.{.{.{.{.{.{.{.{.{.{.{.{.{.{.{.{.{.{.{.{.{.{.{.{.{.{.{.{.",
"{.{.{.{.{.{.{.{.{.{.{.{.{.{.{.{.{.{.{.{.{.{.{.{.{.{.{.{.{.{.S S g ; q g r g g g r r j r g < ; k S V {.{.{.{.{.{.{.{.{.{.{.{.{.{.{.{.{.{.{.{.{.{.{.{.{.{.{.{.{.{.",
"{.{.{.{.{.{.{.{.{.{.{.{.{.{.{.{.{.{.{.{.{.{.{.{.{.{.{.{.{.{.&.A < ; q q g g g r g g j q q q & q S A {.{.{.{.{.{.{.{.{.{.{.{.{.{.{.{.{.{.{.{.{.{.{.{.{.{.{.{.{.{.",
"{.{.{.{.{.{.{.{.{.{.{.{.{.{.{.{.{.{.{.{.{.{.{.{.{.{.{.{.{.V =.V ; & g q q g g g j g r q q q & > A *.b {.{.{.{.{.{.{.{.{.{.{.{.{.{.{.{.{.{.{.{.{.{.{.{.{.{.{.{.{.",
"{.{.{.{.{.{.{.{.{.{.{.{.{.{.{.{.{.{.{.{.{.{.{.{.{.{.{.{.{.*.=.j O ; g f g g g g q g g q r r ; & b -.C {.@ y @.{.{.{.{.{.{.{.{.{.{.{.{.{.{.{.{.{.{.{.{.{.{.{.{.{.",
"{.{.{.{.{.{.{.{.{.{.{.{.{.{.{.{.{.{.{.{.{.{.{.{.{.{.{.{.A =.S q O < g q g g r g r g j q q g q O g -.{ 9 . = s %.{.{.{.{.{.{.{.{.{.{.{.{.{.{.{.{.{.{.{.{.{.{.{.{.",
"{.{.{.{.{.{.{.{.{.{.{.{.{.{.{.{.{.{.{.{.{.{.{.{.{.{.{.{.) ' m > O q r q q g g g g g g q g g > O r ( 3.v @ @ = 8 / {.{.{.{.{.{.{.{.{.{.{.{.{.{.{.{.{.{.{.{.{.{.{.",
"{.{.{.{.{.{.{.{.{.{.{.{.{.{.{.{.{.{.{.{.{.{.{.{.{.{.{.c b V V j O & > q q q g g g r q q q > O * b [ [ ! = @ = 1 p {.{.{.{.{.{.{.{.{.{.{.{.{.{.{.{.{.{.{.{.{.{.{.",
"{.{.{.{.{.{.{.{.{.{.{.{.{.{.{.{.{.{.{.{.{.{.{.{.{.{.{.t t g r V ' m k b m N l r g k m N z k V -.D W ! n 7 @ = 1 3 8 {.{.{.{.{.{.{.{.{.{.{.{.{.{.{.{.{.{.{.{.{.{.",
"{.{.{.{.{.{.{.{.{.{.{.{.{.{.{.{.{.{.{.{.{.{...^ u 4 = r 9 *   O ; ; ; > > > > O & > > , > ; > ; o o < c t @ @ # 1 8 {.{.{.{.{.{.{.{.{.{.{.{.{.{.{.{.{.{.{.{.{.{.",
"{.{.{.{.{.{.{.{.{.{.{.{.{.{.{.{.{.{.g.u.e.| U G 8 = : < ; .                                         X t 9 ; . . # = p {.{.{.{.{.{.{.{.{.{.{.{.{.{.{.{.{.{.{.{.{.",
"{.{.{.{.{.{.{.{.{.{.{.{.{.{.{.y.t.r.%.o./ W 0 u 5 2 e , ;                                           . r t , o   . @ 3 ` f.{.{.{.{.{.{.{.{.{.{.{.{.{.{.{.{.{.{.{.",
"{.{.{.{.{.{.{.{.{.{.{.{.{.#.#.@.%.s.k.u.o.L K K 5 7 7 o                                               X $ : = . . @ = u t.b.{.{.{.{.{.{.{.{.{.{.{.{.{.{.{.{.{.{.",
"{.{.{.{.{.{.{.{.{.{.{.....%.i.c.F._.P.Z.u.#.e.Y 4 p 7 .                                                 . : : O . @ $ 3 / f.b.{.{.{.{.{.{.{.{.{.{.{.{.{.{.{.{.{.",
"{.{.{.{.{.{.{.{.{.{.{.} @.s.C.P.`.[.[.H.x.u.e.F 0 J s y $                                             = a a e - . o @ 1 J #.f.{.{.{.{.{.{.{.{.{.{.{.{.{.{.{.{.{.",
"{.{.{.{.{.{.{.{.{.{.J / %.k.Z.L.`.[.`.F.n.u.E 4 0 u ~ 6.A.0.) :                               X < >.A.R.m.~ e = . . # 1 y R @.{.{.{.{.{.{.{.{.{.{.{.{.{.{.{.{.{.",
"{.{.{.{.{.{.{.{.{.y J } #.k.C.J.I.`._.S.n.u.F 4 u p s 6.E.T.0.&.*                             > >.A.Q./.9.d e : @ . @ 1 3 y i d {.{.{.{.{.{.{.{.{.{.{.{.{.{.{.{.",
"{.{.{.{.{.{.{.{.{.y L } #.f.N.D.K.I.K.S.n.e.4 4 p c r : ; ; O X                                 o $ ; , t t t 2 = o . = 1 3 y y {.{.{.{.{.{.{.{.{.{.{.{.{.{.{.{.",
"{.{.{.{.{.{.{.{.{.e ^ o.%.f.N.D.J.K.G.v.d.i % p x M z > X                                             O r m c r : @ . @ # = 2 w {.{.{.{.{.{.{.{.{.{.{.{.{.{.{.{.",
"{.{.{.{.{.{.{.{.{.d ^ o.t.k.N.Z.G.F.S.n.X.# 6 v M B k f > X                                         X < r N V t , $   . . # = 3 {.{.{.{.{.{.{.{.{.{.{.{.{.{.{.{.",
"{.{.{.{.{.{.{.{.2 d ^ o.t.z.N.D.S.S.v.u.0 $ p Q M z l r g >                                         < f g k m m h : .     . # 2 {.{.{.{.{.{.{.{.{.{.{.{.{.{.{.{.",
"{.{.{.{.{.{.{.{.4 J ` ..i.z.N.C.S.v.k./ . 6 Q M ) l 9 r g g >               X   X               X , g g g g z ' N 9 o     . . y {.{.{.{.{.{.{.{.{.{.{.{.{.{.{.{.",
"{.{.{.{.{.{.{.{.8 L } @.i.k.x.x.x.h.#.3 . 7 W ;.A.0.2.6.7.2.2.1.<.<.<.1.1.1.<.=.=.<.>.>.>.<.<.<.1.2.6.7.7.7.w.U.<.! : X   . # R a.N.{.{.{.{.{.{.{.{.{.{.{.{.{.{.",
"{.{.{.{.{.{.{.{.i ` ..@.i.k.f.d.f.a.U O = 3 n 8.Y.W.Q.~.).).^.^.^.^.).(.(.^.Q.T.T.Q.Q.W.W.!.Q.~.^./././.!.W.E.T.m.$.s = . X 1 R r.N.D.{.{.{.{.{.{.{.{.{.{.{.{.{.",
"{.{.{.{.{.{.{.{.R o.t.y.g.z.h.p.y.| 1 = 3 2 * O > > > > < < < < > < q q q < < > > < < < > < < > < < < > < > > > : e s y # o = u } g.N.{.{.{.{.{.{.{.{.{.{.{.{.{.",
"{.{.{.{.{.{.{.L ..%.t.p.d.h.a.r.| y @ = y =                                                                         e s = o . 1 i | f.N.{.{.{.{.{.{.{.{.{.{.{.{.",
"{.{.{.{.{.{.{.L ` ..@.#.y.y.r.O.J @ O 2 u 2                                                                         e s e @ . . 1 P o.g.{.{.{.{.{.{.{.{.{.{.{.{.",
"{.{.{.{.{.{.{.L L ` | #.#.O.o.U 1 @ - 2 y w o                                                                   . O d s e # . . @ 8 L ` {.{.{.{.{.{.{.{.{.{.{.{.",
"{.{.{.{.{.{.{. .+.O.#.#.O.| T w @ # = w w e ; & O O X O X X X o X O X X O X X X X O X X X X X X X X X X X X X O * 7 a d w * o   . # y u {.{.{.{.{.{.{.{.{.{.{.{.",
"{.{.{.{.{.{.#.r.y.u.y.r.#.X.U 1 @ # : e > > & o o O O O O O O O & & & & & & & O & O O O O O O X O o O O O O O O O * < r : & .   . . 1 2 {.{.{.{.{.{.{.{.{.{.{.{.",
"{.{.{.{.{.U O.y.a.d.a.a.p.r.U # o # : : * O O O O X O & O X & & & ; & & ; ; & O ; & & & O O O O O O O O O O O O O O O & : * o     . . @ {.{.{.{.{.{.{.{.{.{.{.{.",
"{.{.{.{.{.u } p.j.j.j.h.h.e.y o   . * @ @ X O O O O o & & O & & & & & & ; ; & O ; & & & O X O O o X X O X O O O X O O O o O o X       {.{.{.{.{.{.{.{.{.{.{.{.{.",
"{.{.{.{.{./ e.j.x.x.j.d.y.T # .   o O @ . O O O O X O X & & & & ; & & & & ; & & ; & & & O O O X O O O O O O O O O O O O o O o o . . + {.{.{.{.{.{.{.{.{.{.{.{.{.",
"{.{.{.{.U | u.x.v.x.p.O.+.J @   X X O O O o O O O O O O X & & & & & & & ; ; & & ; & & ; O O O O X O O O O O O O O X O O O O O o @ @ @ {.{.{.{.{.{.{.{.{.{.{.{.{.",
"{.{.{.L Y | +.+.| #.#.X.| 5 . . . X O O O O O O & X O O X & & & ; & & & ; ; & & ; & & ; & O O X O O X O O O O O O X O X O O O O O . @ {.{.{.{.{.{.{.{.{.{.{.{.{.",
"{.{.{.G F 5 - @ @ 1 u I H %       O O O O & O O X O O o & O & & & & & & ; ; & & & & O q & O O O O O & X X & O O O O O O O O O O   . {.{.{.{.{.{.{.{.{.{.{.{.{.{.",
"{.{.4 % + . . . @ 4 u H 5 -     X O O O O O & O & X X O O & & & & & & & ; ; & & ; ; O ; & O O O X o O & O & O X O O O O X O O O     {.{.{.{.{.{.{.{.{.{.{.{.{.{.",
"{.1 @ . . # 4 F K H u 4 % .   . X o O O O O O O O O & X O & & & & & O & ; & O & q & & ; & O O X O O O X O O O O X O O X O O O O +     {.{.{.{.{.{.{.{.{.{.{.{.{.",
"{.{.. + 4 H K K H F 5 5 # .   . X O O O O O O O X O O O O & & & & & O & ; & O ; q & & ; ; O O O O X O O O X & & O O O O X O O X O     {.{.{.{.{.{.{.{.{.{.{.{.{.",
"{.{.5 G Y E E E Y Y K F 1 .     o O O O O O O O O O & O & & & O O & & & ; ; O ; q O & ; & O O O O O O O o & X X O O O O O O O O X     {.{.{.{.{.{.{.{.{.{.{.{.{.",
"{.F H K K G 5 0 1 - - 1 @ .   X O O O O O O O O O O O O O & & O & & & ; ; & O ; q ; & ; ; O O O O O O X O & X & O O O O O O O O O     {.{.{.{.{.{.{.{.{.{.{.{.{.",
"G H G 4 # + . . . .   .       O O O X O O O O O O & & & & O & & O & & ; q O & ; q > O > ; O O O X O O O O X & X O O O & O O O O O     {.{.{.{.{.{.{.{.{.{.{.{.{.",
"5 4 + . . . . . + + + + o     O O O O O O X O O O & O & & & & O O & & ; > & O > q > & q & O O O O X O O O X O O O O X O O O O X O     X {.{.{.{.{.{.{.{.{.{.{.{.",
"- + . . @ 6 8 p s W W W :   . O O O O O O O O O & & & & & & & & & & O ; > & & ; q ; O > ; O O O O O O X O O O & O O & O o O O o O o     {.{.{.{.{.{.{.{.{.{.{.{.",
". . + 6 W ~ ( { 3.5.4.5.:   X & O O O X O O O O & & & & & & ; & O & O ; ; & & q q q O ; > O & & O O O O X O O O O O O O O O O O O o   X {.{.{.{.{.{.{.{.{.{.{.{."
};
